<svg width="98" height="98" viewBox="0 0 98 98" fill="none" xmlns="http://www.w3.org/2000/svg">
<circle cx="49" cy="49" r="49" fill="white"/>
<path d="M62.7917 17.7075L52.4834 52.4644L60.73 51.156L62.7917 17.7075Z" fill="#F68A46"/>
<path d="M47.1514 41.3087L51.0358 48.509L61.6902 14.2837L47.1514 41.3087Z" fill="#1268B3"/>
<path d="M47.1521 41.3081L51.0366 48.5084L31.5801 48.7174L47.1521 41.3081Z" fill="#0E3268"/>
<path d="M47.1521 41.3087L31.5801 48.718L46.1042 32.105L61.6909 14.2837L47.1521 41.3087Z" fill="#144986"/>
<path d="M60.73 51.1562L66.5397 68.2507L52.4834 52.4646L60.73 51.1562Z" fill="#F15A29"/>
<path d="M64.9795 47.2401L66.5391 68.2505L60.7295 51.156L62.7911 17.7075L64.9795 47.2401Z" fill="#F37021"/>
<path d="M65.0771 70.5278L75.9995 88.0266L69.9413 74.6799L65.0771 70.5278Z" fill="#F15A29"/>
<path d="M69.9413 74.6799L75.9995 88.0266L64.0244 20.2847L69.9413 74.6799Z" fill="#F37021"/>
<path d="M14.5703 56.1989L43.1556 52.9554L25.2295 52.4375L14.5703 56.1989Z" fill="#0E3268"/>
<path d="M58.211 17.0078L14.5703 56.1984L25.2295 52.437L58.211 17.0078Z" fill="#144986"/>
</svg>
