<svg width="417" height="91" viewBox="0 0 417 91" fill="none" xmlns="http://www.w3.org/2000/svg">
<path d="M404.101 3.26416L394.272 36.4033L402.135 35.1559L404.101 3.26416Z" fill="#F68A46"/>
<path d="M389.188 25.7672L392.892 32.6324L403.051 0L389.188 25.7672Z" fill="#1268B3"/>
<path d="M389.189 25.7666L392.893 32.6318L374.342 32.831L389.189 25.7666Z" fill="#0E3268"/>
<path d="M389.189 25.7672L374.342 32.8316L388.19 16.9919L403.051 0L389.189 25.7672Z" fill="#144986"/>
<path d="M402.135 35.1562L407.675 51.4551L394.272 36.4037L402.135 35.1562Z" fill="#F15A29"/>
<path d="M406.187 31.4222L407.674 51.4547L402.135 35.1559L404.1 3.26416L406.187 31.4222Z" fill="#F37021"/>
<path d="M406.28 53.626L416.694 70.3103L410.918 57.5848L406.28 53.626Z" fill="#F15A29"/>
<path d="M410.918 57.5852L416.694 70.3107L405.276 5.72168L410.918 57.5852Z" fill="#F37021"/>
<path d="M358.124 39.9643L385.379 36.8717L368.287 36.3779L358.124 39.9643Z" fill="#0E3268"/>
<path d="M399.734 2.59717L358.124 39.9637L368.287 36.3773L399.734 2.59717Z" fill="#144986"/>
<path d="M35.9316 53.6294L36.1699 54.8394L42.3799 86.3862L42.7314 88.1763H28.499L28.3232 86.8765L27.9316 83.9692H19.0156L17.3936 87.3286L16.9844 88.1763H2.59277L3.88379 85.9292L22.0166 54.3823L22.4482 53.6294H35.9316ZM23.9121 74.4116H26.8232L26.2568 69.7388L23.9121 74.4116Z" fill="white" stroke="#0E3268" stroke-width="3"/>
<path d="M70.124 61.3354C72.4162 61.2327 74.6886 61.8167 76.6035 63.0083L76.9824 63.2544L77.0293 63.2876C79.0151 64.7565 79.8457 67.118 79.8457 69.9292V69.9399C79.8384 70.969 79.7326 71.9954 79.5283 73.0063L76.8252 86.9614L76.5898 88.1763H63.6289L63.96 86.4019L66.2441 74.1362L66.292 73.5161L66.332 72.772C66.3272 72.1254 66.1615 71.9016 66.082 71.8247C65.9918 71.7377 65.7258 71.562 65.002 71.562H64.9766L64.9521 71.561C64.1884 71.5355 63.4637 71.7919 62.9355 72.2417L62.917 72.2573L62.8975 72.2729C62.8262 72.3297 62.6395 72.5316 62.4062 73.0454C62.1823 73.5388 61.9584 74.2245 61.752 75.1294L59.5059 86.9321L59.2734 88.1509H46.1484L46.4873 86.3706L50.9053 63.1753L51.1377 61.9565H63.3945L63.1025 63.3491C65.2522 62.033 67.5961 61.3466 70.124 61.3354Z" fill="white" stroke="#0E3268" stroke-width="3"/>
<path d="M117.31 55.4155L111.317 86.2358L111.081 87.4497H99.1572L99.3154 86.6411C99.0605 86.7883 98.7992 86.9276 98.5312 87.0552C96.8862 87.838 95.0548 88.2202 93.2119 88.1724C90.5327 88.2198 87.8991 87.4467 85.7402 85.9556L85.7373 85.9536C83.3363 84.2864 82.3096 81.5522 82.3096 78.1948V78.147L82.3125 78.0991C82.3951 76.8104 82.5592 75.5269 82.8018 74.2554C83.3173 70.7243 85.147 67.4922 87.9434 65.0815L88.2188 64.8501C90.673 62.7203 93.8882 61.5106 97.2354 61.4253C98.7504 61.3659 100.264 61.62 101.663 62.1714L101.725 62.1958L101.784 62.2261C102.198 62.433 102.593 62.6684 102.972 62.9253L104.497 54.8667L104.728 53.6479L105.969 53.645L115.835 53.6294L117.657 53.6265L117.31 55.4155ZM99.126 71.2485H99.083C98.1311 71.2486 97.4091 71.6017 96.7998 72.3979C96.147 73.2513 95.5948 74.6642 95.2666 76.7983C95.2815 77.6898 95.5011 78.1076 95.6885 78.3042C95.8694 78.4938 96.2473 78.7153 97.1094 78.7163C97.6616 78.702 98.1911 78.5546 98.6416 78.2974C99.0978 78.0368 99.447 77.6798 99.6689 77.2808L99.7061 77.2153L99.749 77.1528C100.52 76.0442 100.931 74.7799 100.952 73.4976V73.4741L100.953 73.4517C100.981 72.8583 100.808 72.2596 100.438 71.7319C100.308 71.5883 100.135 71.4601 99.9219 71.3716C99.6915 71.2761 99.4317 71.2317 99.168 71.2466L99.126 71.2485Z" fill="white" stroke="#0E3268" stroke-width="3"/>
<path d="M136.439 61.3237C140.3 61.3237 143.364 61.798 145.275 63.0288H145.274C146.235 63.6442 147.023 64.4856 147.549 65.4829C148.065 66.4623 148.307 67.5535 148.248 68.6538L148.249 68.6548C148.229 69.6596 148.127 70.6616 147.944 71.6519L147.942 71.6616L145.841 82.6509L145.842 82.6519L145.621 83.8354C145.696 84.0312 145.832 84.2204 146.032 84.3765L146.785 84.9614L146.574 85.8921L146.486 86.2788L146.222 87.4468H133.494V86.2212C130.887 87.5578 127.933 88.2373 124.933 88.1724V88.1714C122.638 88.1794 120.39 87.5068 118.523 86.2358L118.501 86.2212L118.479 86.2046C117.698 85.6299 117.067 84.8807 116.651 84.0132C116.246 83.1677 116.062 82.2399 116.116 81.3071V80.644L116.142 80.5073L116.334 79.4761C116.649 77.3241 117.829 75.3903 119.599 74.0454L119.606 74.0396C120.943 73.0373 122.48 72.3018 124.121 71.8706L121.051 71.8735L119.258 71.8745L119.573 70.1089C120.118 67.062 121.976 64.8048 124.911 63.3647C127.773 61.9612 131.659 61.3237 136.439 61.3237ZM133.576 78.2241C133.289 78.2846 133.001 78.3387 132.711 78.3872L132.712 78.3882L131.02 78.7144C130.564 78.8288 130.125 78.9868 129.709 79.1841C129.576 79.2653 129.473 79.365 129.403 79.4712C129.348 79.5552 129.312 79.6422 129.294 79.728C129.3 79.7331 129.307 79.7406 129.316 79.7476C129.449 79.843 129.792 79.9964 130.5 80.0864C131.001 80.0803 131.49 79.9742 131.933 79.7759C132.397 79.5678 132.791 79.2684 133.09 78.9106C133.27 78.6908 133.431 78.4609 133.576 78.2241ZM134.224 69.6812C132.887 69.6812 132.22 70.1027 131.902 70.6743C132.962 70.5531 134.008 70.3456 135.027 70.0513C135.237 69.9656 135.374 69.8872 135.462 69.8267C135.25 69.7556 134.864 69.6812 134.224 69.6812Z" fill="white" stroke="#0E3268" stroke-width="3"/>
<path d="M189.02 61.3237C191.817 61.3238 194.147 61.8615 195.815 63.1948C197.597 64.6185 198.301 66.8523 198.301 69.4507V69.4614C198.292 70.6498 198.191 71.836 197.999 73.0103L197.996 73.0269L197.993 73.0425L195.411 86.9097L195.183 88.1343H182.288L182.618 86.3599L184.821 74.5259L184.825 74.5034L184.83 74.481C184.975 73.8142 185.059 73.1371 185.079 72.4575L185.08 72.3989L185.087 72.3413C185.1 72.2179 185.087 72.0919 185.048 71.9702C185.023 71.8947 184.987 71.8209 184.941 71.7495C184.681 71.6053 184.369 71.5357 184.049 71.5659L183.977 71.5728H183.904C183.289 71.5713 182.7 71.7649 182.233 72.1089L182.227 72.1147L182.219 72.1206C182.13 72.1846 181.929 72.3869 181.693 72.9097C181.463 73.4204 181.242 74.1391 181.053 75.0991L178.897 86.9126L178.673 88.1431H165.815L166.148 86.3677L168.391 74.3794L168.562 72.5532C168.553 72.0176 168.413 71.8522 168.371 71.811C168.32 71.7614 168.124 71.6138 167.534 71.6138H167.503C167.182 71.6071 166.864 71.6625 166.571 71.7749C166.31 71.875 166.078 72.0191 165.88 72.1929C165.217 73.0626 164.779 74.0565 164.597 75.0991L164.596 75.1079L164.594 75.1157L162.391 86.9507L162.163 88.1763H149.416L149.748 86.4009L154.093 63.1704L154.321 61.9458H166.345L166.104 63.2017C166.468 62.9912 166.843 62.7956 167.228 62.6167C167.61 62.4217 167.935 62.2656 168.155 62.1802L168.168 62.1753C168.739 61.9598 169.323 61.7783 169.917 61.6323V61.6333C170.762 61.4217 171.632 61.3182 172.505 61.3247V61.3237C172.507 61.3237 172.508 61.3247 172.51 61.3247C172.512 61.3247 172.515 61.3237 172.518 61.3237L172.517 61.3247C174.629 61.3261 176.49 61.7062 177.983 62.5942C178.855 63.1121 179.563 63.7808 180.108 64.5815C182.724 62.4361 185.699 61.3237 189.02 61.3237Z" fill="white" stroke="#0E3268" stroke-width="3"/>
<path d="M220.983 61.3237C224.948 61.3237 228.078 61.7968 230.027 63.0142L230.388 63.2534C231.208 63.8363 231.887 64.5878 232.362 65.4624C232.895 66.4435 233.148 67.54 233.087 68.6479L233.075 69.0259C233.038 69.9054 232.937 70.7816 232.772 71.6489L232.771 71.6528L230.654 82.6362L230.43 83.8032C230.506 83.9905 230.643 84.1762 230.852 84.3335L231.63 84.9214L231.408 85.8716L231.318 86.2573L231.048 87.4165H217.997V86.1694C215.309 87.5329 212.256 88.2304 209.154 88.1733V88.1724C206.813 88.1803 204.516 87.5141 202.606 86.2505L202.584 86.2358L202.562 86.2202C201.765 85.6501 201.115 84.9034 200.687 84.0337C200.271 83.1914 200.08 82.2651 200.133 81.3315V80.6479L200.159 80.5083L200.357 79.478H200.358C200.685 77.3162 201.903 75.3851 203.715 74.0483L203.723 74.0425C205.109 73.0327 206.705 72.2965 208.406 71.8706L205.151 71.8628L203.353 71.8589L203.68 70.0903C204.246 67.032 206.165 64.7832 209.165 63.354C212.094 61.9588 216.076 61.3237 220.983 61.3237ZM218.08 78.1958C217.766 78.2611 217.45 78.3187 217.133 78.3706L217.134 78.3716L215.378 78.7007C214.908 78.8147 214.455 78.9721 214.027 79.1704C213.881 79.2558 213.773 79.3606 213.7 79.4673C213.648 79.5434 213.615 79.6204 213.596 79.6948C213.602 79.6994 213.608 79.7057 213.616 79.7114C213.764 79.8143 214.13 79.9713 214.872 80.062C215.4 80.0563 215.916 79.9479 216.381 79.7456C216.867 79.5338 217.277 79.2301 217.585 78.8716C217.768 78.6546 217.933 78.4286 218.08 78.1958ZM218.713 69.7065C217.316 69.7066 216.618 70.1366 216.287 70.7007C217.401 70.5798 218.499 70.3673 219.569 70.0669C219.771 69.9869 219.91 69.913 220.004 69.853C219.773 69.7794 219.367 69.7065 218.713 69.7065Z" fill="white" stroke="#0E3268" stroke-width="3"/>
<path d="M257.557 61.3345C259.962 61.2403 262.34 61.9116 264.298 63.2573L264.323 63.2749L264.347 63.2925C266.316 64.7661 267.123 67.1294 267.123 69.9292V69.9351C267.119 70.9603 267.017 71.9828 266.819 72.9907L264.146 86.9585L263.913 88.1763H251.064L251.394 86.4028L253.667 74.1519L253.707 73.5356V73.5337L253.755 72.7661C253.749 72.1201 253.586 71.8949 253.509 71.8188C253.424 71.7358 253.168 71.562 252.458 71.562H252.424L252.391 71.5601C252.02 71.5432 251.651 71.5957 251.307 71.7114C250.962 71.8271 250.651 72.0027 250.392 72.2241L250.378 72.2358C250.293 72.3068 250.103 72.5237 249.871 73.0396C249.648 73.5358 249.426 74.2182 249.218 75.1128L246.998 86.9126L246.769 88.1343H233.843L234.174 86.3599L238.497 63.1812L238.726 61.9565H250.855L250.572 63.3364C252.709 62.0184 255.041 61.3335 257.557 61.3335V61.3345Z" fill="white" stroke="#0E3268" stroke-width="3"/>
<path d="M296.455 53.4272C300.135 52.1977 304.059 51.811 307.914 52.2915L308.685 52.3989L308.729 52.4067C309.997 52.6429 311.227 53.0357 312.392 53.5737L312.805 53.7554C314.716 54.638 316.354 55.9995 317.54 57.7046L317.787 58.0757L317.799 58.0933L317.81 58.1108C319.098 60.2549 319.747 62.7036 319.677 65.186V66.8179H306.545L306.378 65.5083C306.244 64.464 305.885 63.8678 305.442 63.5093C304.981 63.135 304.22 62.8511 302.974 62.8511C301.084 62.8511 299.647 63.6057 298.53 65.2241C297.359 66.921 296.514 69.6213 296.137 73.5015C296.147 75.1966 296.564 76.2021 297.131 76.7896C297.694 77.3724 298.648 77.7928 300.277 77.7964C301.225 77.7664 302.147 77.5236 302.973 77.0952H300.026L300.346 75.3276L301.593 68.4458L301.816 67.2134H319.757L319.427 68.9878L316.163 86.5366L315.935 87.7622H306.215L306.263 86.2153V86.1987C303.56 87.7998 300.418 88.6282 297.207 88.5562C292.687 88.5561 288.959 87.3147 286.229 84.6528L286.224 84.647L286.217 84.6411C284.874 83.3012 283.823 81.7115 283.132 79.9663C282.441 78.2212 282.124 76.3581 282.202 74.4897L282.244 72.5396L282.247 72.4136L282.271 72.2896L282.6 70.5757C283.414 65.5619 285.93 60.9552 289.744 57.4624L289.746 57.4604C291.671 55.7051 293.941 54.3389 296.419 53.4399L296.437 53.4341L296.455 53.4272Z" fill="white" stroke="#0E3268" stroke-width="3"/>
<path d="M346.319 53.6421C348.897 53.5569 351.47 53.9209 353.904 54.7153C355.764 55.2461 357.427 56.2767 358.674 57.6929L358.919 57.9819L358.945 58.0151L358.97 58.0483C360.154 59.6891 360.759 61.6456 360.682 63.6411L360.683 63.6421C360.67 64.6171 360.563 65.5894 360.365 66.5464L360.363 66.5591C359.529 70.421 357.598 73.4276 354.533 75.4341C351.51 77.413 347.527 78.3247 342.73 78.3247H338.223L336.596 86.9546L336.365 88.1763H322.062L322.404 86.3931L328.459 54.8589L328.693 53.6421H346.319ZM340.166 68.0171H343.191L343.205 68.0181C344.179 68.0358 345.106 67.7167 345.809 67.1509L345.821 67.1411L345.835 67.1304C346.142 66.8939 346.377 66.6054 346.531 66.2925C346.685 65.9802 346.758 65.6465 346.751 65.3149V65.2817C346.751 65.0669 346.703 64.9492 346.656 64.8745C346.606 64.7946 346.499 64.6736 346.251 64.5425C345.71 64.2563 344.707 64.0308 343.062 64.0308H340.981L340.166 68.0171Z" fill="white" stroke="#0E3268" stroke-width="3"/>
<path d="M382.093 52.103C385.489 51.992 388.853 52.7726 391.786 54.3589L392.37 54.689L392.415 54.7163C395.275 56.5407 396.539 59.6685 396.539 63.6216V65.1255L395.035 65.1216L384.764 65.0981C387.326 65.6648 389.757 66.6708 391.924 68.0718L391.943 68.0845L391.962 68.0972C392.991 68.8077 393.832 69.7428 394.402 70.8325C394.974 71.9233 395.255 73.132 395.213 74.355L395.212 74.3862L395.21 74.4185L395.064 76.3081L395.06 76.3677L395.051 76.4263C394.737 78.4203 393.916 80.3091 392.665 81.9409C391.415 83.5719 389.771 84.8999 387.876 85.8276L387.865 85.8325C383.969 87.7008 379.626 88.636 375.239 88.5571V88.5562C370.788 88.552 367.045 87.5117 364.152 85.2876C362.923 84.3431 361.93 83.1508 361.256 81.7905C360.581 80.4294 360.247 78.9401 360.282 77.4341V77.4146L360.283 77.395L360.338 76.2935L360.408 74.8667H373.363C371.178 74.2617 369.075 73.4144 367.105 72.3384L367.073 72.3208L367.042 72.3013C365.852 71.5729 364.876 70.561 364.227 69.355C363.576 68.1474 363.281 66.7941 363.38 65.4351L363.382 65.4019L363.386 65.3687L363.531 64.1343L363.533 64.1206L363.535 64.106L363.68 63.0454L363.688 62.9868L363.7 62.9292C364.163 60.8041 365.252 58.8526 366.829 57.2808L366.839 57.271C368.62 55.5263 370.828 54.2149 373.268 53.437V53.436C376.101 52.5122 379.09 52.0617 382.093 52.103ZM374.291 76.5054C374.272 76.7153 374.316 76.9332 374.432 77.1372C374.547 77.3412 374.735 77.5305 374.988 77.6685C375.754 78.0631 376.629 78.2719 377.523 78.2651H377.534C379.867 78.2651 380.652 77.7156 380.907 77.2954V77.0991L380.906 77.0962C380.904 77.0905 380.9 77.0806 380.89 77.0679C380.869 77.041 380.824 77.0025 380.75 76.9761L380.705 76.9585C379.164 76.3509 377.574 75.8513 375.948 75.4624C375.434 75.3677 374.924 75.2588 374.418 75.1382L374.291 76.5054ZM379.948 62.4038C378.937 62.4038 378.313 62.5388 377.964 62.6978C377.76 62.7907 377.689 62.8699 377.659 62.9272C377.661 62.9496 377.667 62.9731 377.678 62.9976C377.695 63.0375 377.73 63.0846 377.786 63.1313C378.54 63.5683 379.368 63.8988 380.24 64.1069L382.695 64.6538V63.5972C382.695 63.1645 382.567 62.9894 382.33 62.8394C381.978 62.6158 381.256 62.4013 379.951 62.4038H379.948Z" fill="white" stroke="#0E3268" stroke-width="3"/>
</svg>
